  0
SECTION
  2
HEADER
  9
$ACADVER
  1
AC1032
  9
$ACADMAINTVER
 90
4
  9
$DWGCODEPAGE
  3
ANSI_1252
  9
$LASTSAVEDBY
  1
ezdxf
  9
$REQUIREDVERSIONS
160
0
  9
$INSBASE
 10
0.0
 20
0.0
 30
0.0
  9
$EXTMIN
 10
1e+20
 20
1e+20
 30
1e+20
  9
$EXTMAX
 10
-1e+20
 20
-1e+20
 30
-1e+20
  9
$LIMMIN
 10
0.0
 20
0.0
  9
$LIMMAX
 10
420.0
 20
297.0
  9
$ORTHOMODE
 70
0
  9
$REGENMODE
 70
1
  9
$FILLMODE
 70
1
  9
$QTEXTMODE
 70
0
  9
$MIRRTEXT
 70
1
  9
$LTSCALE
 40
1.0
  9
$ATTMODE
 70
1
  9
$TEXTSIZE
 40
2.5
  9
$TRACEWID
 40
1.0
  9
$TEXTSTYLE
  7
Standard
  9
$CLAYER
  8
0
  9
$CELTYPE
  6
ByLayer
  9
$CECOLOR
 62
256
  9
$CELTSCALE
 40
1.0
  9
$DISPSILH
 70
0
  9
$DIMSCALE
 40
1.0
  9
$DIMASZ
 40
2.5
  9
$DIMEXO
 40
0.625
  9
$DIMDLI
 40
3.75
  9
$DIMRND
 40
0.0
  9
$DIMDLE
 40
0.0
  9
$DIMEXE
 40
1.25
  9
$DIMTP
 40
0.0
  9
$DIMTM
 40
0.0
  9
$DIMTXT
 40
2.5
  9
$DIMCEN
 40
2.5
  9
$DIMTSZ
 40
0.0
  9
$DIMTOL
 70
0
  9
$DIMLIM
 70
0
  9
$DIMTIH
 70
0
  9
$DIMTOH
 70
0
  9
$DIMSE1
 70
0
  9
$DIMSE2
 70
0
  9
$DIMTAD
 70
1
  9
$DIMZIN
 70
8
  9
$DIMBLK
  1

  9
$DIMASO
 70
1
  9
$DIMSHO
 70
1
  9
$DIMPOST
  1

  9
$DIMAPOST
  1

  9
$DIMALT
 70
0
  9
$DIMALTD
 70
3
  9
$DIMALTF
 40
0.03937007874
  9
$DIMLFAC
 40
1.0
  9
$DIMTOFL
 70
1
  9
$DIMTVP
 40
0.0
  9
$DIMTIX
 70
0
  9
$DIMSOXD
 70
0
  9
$DIMSAH
 70
0
  9
$DIMBLK1
  1

  9
$DIMBLK2
  1

  9
$DIMSTYLE
  2
ISO-25
  9
$DIMCLRD
 70
0
  9
$DIMCLRE
 70
0
  9
$DIMCLRT
 70
0
  9
$DIMTFAC
 40
1.0
  9
$DIMGAP
 40
0.625
  9
$DIMJUST
 70
0
  9
$DIMSD1
 70
0
  9
$DIMSD2
 70
0
  9
$DIMTOLJ
 70
0
  9
$DIMTZIN
 70
8
  9
$DIMALTZ
 70
0
  9
$DIMALTTZ
 70
0
  9
$DIMUPT
 70
0
  9
$DIMDEC
 70
2
  9
$DIMTDEC
 70
2
  9
$DIMALTU
 70
2
  9
$DIMALTTD
 70
3
  9
$DIMTXSTY
  7
Standard
  9
$DIMAUNIT
 70
0
  9
$DIMADEC
 70
0
  9
$DIMALTRND
 40
0.0
  9
$DIMAZIN
 70
0
  9
$DIMDSEP
 70
44
  9
$DIMATFIT
 70
3
  9
$DIMFRAC
 70
0
  9
$DIMLDRBLK
  1

  9
$DIMLUNIT
 70
2
  9
$DIMLWD
 70
-2
  9
$DIMLWE
 70
-2
  9
$DIMTMOVE
 70
0
  9
$DIMFXL
 40
1.0
  9
$DIMFXLON
 70
0
  9
$DIMJOGANG
 40
0.785398163397
  9
$DIMTFILL
 70
0
  9
$DIMTFILLCLR
 70
0
  9
$DIMARCSYM
 70
0
  9
$DIMLTYPE
  6

  9
$DIMLTEX1
  6

  9
$DIMLTEX2
  6

  9
$DIMTXTDIRECTION
 70
0
  9
$LUNITS
 70
2
  9
$LUPREC
 70
4
  9
$SKETCHINC
 40
1.0
  9
$FILLETRAD
 40
10.0
  9
$AUNITS
 70
0
  9
$AUPREC
 70
2
  9
$MENU
  1
.
  9
$ELEVATION
 40
0.0
  9
$PELEVATION
 40
0.0
  9
$THICKNESS
 40
0.0
  9
$LIMCHECK
 70
0
  9
$CHAMFERA
 40
0.0
  9
$CHAMFERB
 40
0.0
  9
$CHAMFERC
 40
0.0
  9
$CHAMFERD
 40
0.0
  9
$SKPOLY
 70
0
  9
$TDCREATE
 40
2461018.9294560184
  9
$TDUCREATE
 40
2458532.153996898
  9
$TDUPDATE
 40
2461018.9294560184
  9
$TDUUPDATE
 40
2458532.1544311
  9
$TDINDWG
 40
0.0
  9
$TDUSRTIMER
 40
0.0
  9
$USRTIMER
 70
1
  9
$ANGBASE
 50
0.0
  9
$ANGDIR
 70
0
  9
$PDMODE
 70
0
  9
$PDSIZE
 40
0.0
  9
$PLINEWID
 40
0.0
  9
$SPLFRAME
 70
0
  9
$SPLINETYPE
 70
6
  9
$SPLINESEGS
 70
8
  9
$HANDSEED
  5
33
  9
$SURFTAB1
 70
6
  9
$SURFTAB2
 70
6
  9
$SURFTYPE
 70
6
  9
$SURFU
 70
6
  9
$SURFV
 70
6
  9
$UCSBASE
  2

  9
$UCSNAME
  2

  9
$UCSORG
 10
0.0
 20
0.0
 30
0.0
  9
$UCSXDIR
 10
1.0
 20
0.0
 30
0.0
  9
$UCSYDIR
 10
0.0
 20
1.0
 30
0.0
  9
$UCSORTHOREF
  2

  9
$UCSORTHOVIEW
 70
0
  9
$UCSORGTOP
 10
0.0
 20
0.0
 30
0.0
  9
$UCSORGBOTTOM
 10
0.0
 20
0.0
 30
0.0
  9
$UCSORGLEFT
 10
0.0
 20
0.0
 30
0.0
  9
$UCSORGRIGHT
 10
0.0
 20
0.0
 30
0.0
  9
$UCSORGFRONT
 10
0.0
 20
0.0
 30
0.0
  9
$UCSORGBACK
 10
0.0
 20
0.0
 30
0.0
  9
$PUCSBASE
  2

  9
$PUCSNAME
  2

  9
$PUCSORG
 10
0.0
 20
0.0
 30
0.0
  9
$PUCSXDIR
 10
1.0
 20
0.0
 30
0.0
  9
$PUCSYDIR
 10
0.0
 20
1.0
 30
0.0
  9
$PUCSORTHOREF
  2

  9
$PUCSORTHOVIEW
 70
0
  9
$PUCSORGTOP
 10
0.0
 20
0.0
 30
0.0
  9
$PUCSORGBOTTOM
 10
0.0
 20
0.0
 30
0.0
  9
$PUCSORGLEFT
 10
0.0
 20
0.0
 30
0.0
  9
$PUCSORGRIGHT
 10
0.0
 20
0.0
 30
0.0
  9
$PUCSORGFRONT
 10
0.0
 20
0.0
 30
0.0
  9
$PUCSORGBACK
 10
0.0
 20
0.0
 30
0.0
  9
$USERI1
 70
0
  9
$USERI2
 70
0
  9
$USERI3
 70
0
  9
$USERI4
 70
0
  9
$USERI5
 70
0
  9
$USERR1
 40
0.0
  9
$USERR2
 40
0.0
  9
$USERR3
 40
0.0
  9
$USERR4
 40
0.0
  9
$USERR5
 40
0.0
  9
$WORLDVIEW
 70
1
  9
$SHADEDGE
 70
3
  9
$SHADEDIF
 70
70
  9
$TILEMODE
 70
1
  9
$MAXACTVP
 70
64
  9
$PINSBASE
 10
0.0
 20
0.0
 30
0.0
  9
$PLIMCHECK
 70
0
  9
$PEXTMIN
 10
1e+20
 20
1e+20
 30
1e+20
  9
$PEXTMAX
 10
-1e+20
 20
-1e+20
 30
-1e+20
  9
$PLIMMIN
 10
0.0
 20
0.0
  9
$PLIMMAX
 10
420.0
 20
297.0
  9
$UNITMODE
 70
0
  9
$VISRETAIN
 70
1
  9
$PLINEGEN
 70
0
  9
$PSLTSCALE
 70
1
  9
$TREEDEPTH
 70
3020
  9
$CMLSTYLE
  2
Standard
  9
$CMLJUST
 70
0
  9
$CMLSCALE
 40
20.0
  9
$PROXYGRAPHICS
 70
1
  9
$MEASUREMENT
 70
1
  9
$CELWEIGHT
370
-1
  9
$ENDCAPS
280
0
  9
$JOINSTYLE
280
0
  9
$LWDISPLAY
290
0
  9
$INSUNITS
 70
6
  9
$HYPERLINKBASE
  1

  9
$STYLESHEET
  1

  9
$XEDIT
290
1
  9
$CEPSNTYPE
380
0
  9
$PSTYLEMODE
290
1
  9
$FINGERPRINTGUID
  2
{ACDF9E20-DDEB-4D0B-A4B1-E2FC279263AF}
  9
$VERSIONGUID
  2
{A397316F-0890-4102-85AC-764C5A1DF5D8}
  9
$EXTNAMES
290
1
  9
$PSVPSCALE
 40
0.0
  9
$OLESTARTUP
290
0
  9
$SORTENTS
280
127
  9
$INDEXCTL
280
0
  9
$HIDETEXT
280
1
  9
$XCLIPFRAME
280
1
  9
$HALOGAP
280
0
  9
$OBSCOLOR
 70
257
  9
$OBSLTYPE
280
0
  9
$INTERSECTIONDISPLAY
280
0
  9
$INTERSECTIONCOLOR
 70
257
  9
$DIMASSOC
280
2
  9
$PROJECTNAME
  1

  9
$CAMERADISPLAY
290
0
  9
$LENSLENGTH
 40
50.0
  9
$CAMERAHEIGHT
 40
0.0
  9
$STEPSPERSEC
 40
24.0
  9
$STEPSIZE
 40
100.0
  9
$3DDWFPREC
 40
2.0
  9
$PSOLWIDTH
 40
0.005
  9
$PSOLHEIGHT
 40
0.08
  9
$LOFTANG1
 40
1.570796326795
  9
$LOFTANG2
 40
1.570796326795
  9
$LOFTMAG1
 40
0.0
  9
$LOFTMAG2
 40
0.0
  9
$LOFTPARAM
 70
7
  9
$LOFTNORMALS
280
1
  9
$LATITUDE
 40
37.795
  9
$LONGITUDE
 40
-122.394
  9
$NORTHDIRECTION
 40
0.0
  9
$TIMEZONE
 70
-8000
  9
$LIGHTGLYPHDISPLAY
280
1
  9
$TILEMODELIGHTSYNCH
280
1
  9
$CMATERIAL
347
20
  9
$SOLIDHIST
280
0
  9
$SHOWHIST
280
1
  9
$DWFFRAME
280
2
  9
$DGNFRAME
280
2
  9
$REALWORLDSCALE
290
1
  9
$INTERFERECOLOR
 62
256
  9
$CSHADOW
280
0
  9
$SHADOWPLANELOCATION
 40
0.0
  0
ENDSEC
  0
SECTION
  2
CLASSES
  0
CLASS
  1
ACDBDICTIONARYWDFLT
  2
AcDbDictionaryWithDefault
  3
ObjectDBX Classes
 90
0
 91
0
280
0
281
0
  0
CLASS
  1
SUN
  2
AcDbSun
  3
SCENEOE
 90
1153
 91
0
280
0
281
0
  0
CLASS
  1
VISUALSTYLE
  2
AcDbVisualStyle
  3
ObjectDBX Classes
 90
4095
 91
0
280
0
281
0
  0
CLASS
  1
MATERIAL
  2
AcDbMaterial
  3
ObjectDBX Classes
 90
1153
 91
0
280
0
281
0
  0
CLASS
  1
SCALE
  2
AcDbScale
  3
ObjectDBX Classes
 90
1153
 91
0
280
0
281
0
  0
CLASS
  1
TABLESTYLE
  2
AcDbTableStyle
  3
ObjectDBX Classes
 90
4095
 91
0
280
0
281
0
  0
CLASS
  1
MLEADERSTYLE
  2
AcDbMLeaderStyle
  3
ACDB_MLEADERSTYLE_CLASS
 90
4095
 91
0
280
0
281
0
  0
CLASS
  1
DICTIONARYVAR
  2
AcDbDictionaryVar
  3
ObjectDBX Classes
 90
0
 91
0
280
0
281
0
  0
CLASS
  1
CELLSTYLEMAP
  2
AcDbCellStyleMap
  3
ObjectDBX Classes
 90
1152
 91
0
280
0
281
0
  0
CLASS
  1
MENTALRAYRENDERSETTINGS
  2
AcDbMentalRayRenderSettings
  3
SCENEOE
 90
1024
 91
0
280
0
281
0
  0
CLASS
  1
ACDBDETAILVIEWSTYLE
  2
AcDbDetailViewStyle
  3
ObjectDBX Classes
 90
1025
 91
0
280
0
281
0
  0
CLASS
  1
ACDBSECTIONVIEWSTYLE
  2
AcDbSectionViewStyle
  3
ObjectDBX Classes
 90
1025
 91
0
280
0
281
0
  0
CLASS
  1
RASTERVARIABLES
  2
AcDbRasterVariables
  3
ISM
 90
0
 91
0
280
0
281
0
  0
CLASS
  1
ACDBPLACEHOLDER
  2
AcDbPlaceHolder
  3
ObjectDBX Classes
 90
0
 91
0
280
0
281
0
  0
CLASS
  1
LAYOUT
  2
AcDbLayout
  3
ObjectDBX Classes
 90
0
 91
0
280
0
281
0
  0
ENDSEC
  0
SECTION
  2
TABLES
  0
TABLE
  2
VPORT
  5
8
330
0
100
AcDbSymbolTable
 70
1
  0
VPORT
  5
23
330
8
100
AcDbSymbolTableRecord
100
AcDbViewportTableRecord
  2
*Active
 70
0
 10
0.0
 20
0.0
 11
1.0
 21
1.0
 12
0.0
 22
0.0
 13
0.0
 23
0.0
 14
0.5
 24
0.5
 15
0.5
 25
0.5
 16
0.0
 26
0.0
 36
1.0
 17
0.0
 27
0.0
 37
0.0
 40
1000.0
 41
1.34
 42
50.0
 43
0.0
 44
0.0
 50
0.0
 51
0.0
 71
0
 72
1000
 73
1
 74
3
 75
0
 76
0
 77
0
 78
0
281
0
 65
0
146
0.0
  0
ENDTAB
  0
TABLE
  2
LTYPE
  5
2
330
0
100
AcDbSymbolTable
 70
3
  0
LTYPE
  5
24
330
2
100
AcDbSymbolTableRecord
100
AcDbLinetypeTableRecord
  2
ByBlock
 70
0
  3

 72
65
 73
0
 40
0.0
  0
LTYPE
  5
25
330
2
100
AcDbSymbolTableRecord
100
AcDbLinetypeTableRecord
  2
ByLayer
 70
0
  3

 72
65
 73
0
 40
0.0
  0
LTYPE
  5
26
330
2
100
AcDbSymbolTableRecord
100
AcDbLinetypeTableRecord
  2
Continuous
 70
0
  3

 72
65
 73
0
 40
0.0
  0
ENDTAB
  0
TABLE
  2
LAYER
  5
1
330
0
100
AcDbSymbolTable
 70
2
  0
LAYER
  5
27
330
1
100
AcDbSymbolTableRecord
100
AcDbLayerTableRecord
  2
0
 70
0
 62
7
  6
Continuous
370
-3
390
13
347
21
  0
LAYER
  5
28
330
1
100
AcDbSymbolTableRecord
100
AcDbLayerTableRecord
  2
Defpoints
 70
0
 62
7
  6
Continuous
290
0
370
-3
390
13
347
21
  0
ENDTAB
  0
TABLE
  2
STYLE
  5
5
330
0
100
AcDbSymbolTable
 70
1
  0
STYLE
  5
29
330
5
100
AcDbSymbolTableRecord
100
AcDbTextStyleTableRecord
  2
Standard
 70
0
 40
0.0
 41
1.0
 50
0.0
 71
0
 42
2.5
  3
txt
  4

  0
ENDTAB
  0
TABLE
  2
VIEW
  5
7
330
0
100
AcDbSymbolTable
 70
0
  0
ENDTAB
  0
TABLE
  2
UCS
  5
6
330
0
100
AcDbSymbolTable
 70
0
  0
ENDTAB
  0
TABLE
  2
APPID
  5
3
330
0
100
AcDbSymbolTable
 70
3
  0
APPID
  5
2A
330
3
100
AcDbSymbolTableRecord
100
AcDbRegAppTableRecord
  2
ACAD
 70
0
  0
APPID
  5
30
330
3
100
AcDbSymbolTableRecord
100
AcDbRegAppTableRecord
  2
HATCHBACKGROUNDCOLOR
 70
0
  0
APPID
  5
31
330
3
100
AcDbSymbolTableRecord
100
AcDbRegAppTableRecord
  2
EZDXF
 70
0
  0
ENDTAB
  0
TABLE
  2
DIMSTYLE
  5
4
330
0
100
AcDbSymbolTable
 70
1
100
AcDbDimStyleTable
  0
DIMSTYLE
105
2B
330
4
100
AcDbSymbolTableRecord
100
AcDbDimStyleTableRecord
  2
Standard
 70
0
 40
1.0
 41
2.5
 42
0.625
 43
3.75
 44
1.25
 45
0.0
 46
0.0
 47
0.0
 48
0.0
 49
2.5
140
2.5
141
2.5
142
0.0
143
0.03937007874
144
1.0
145
0.0
146
1.0
147
0.625
148
0.0
 69
0
 70
0
 71
0
 72
0
 73
0
 74
0
 75
0
 76
0
 77
1
 78
8
 79
3
170
0
171
3
172
1
173
0
174
0
175
0
176
0
177
0
178
0
179
2
271
2
272
2
273
2
274
3
275
0
276
0
277
2
278
44
279
0
280
0
281
0
282
0
283
0
284
8
285
0
286
0
288
0
289
3
290
0
371
-2
372
-2
  0
ENDTAB
  0
TABLE
  2
BLOCK_RECORD
  5
9
330
0
100
AcDbSymbolTable
 70
2
  0
BLOCK_RECORD
  5
17
330
9
100
AcDbSymbolTableRecord
100
AcDbBlockTableRecord
  2
*Model_Space
340
1A
 70
0
280
1
281
0
  0
BLOCK_RECORD
  5
1B
330
9
100
AcDbSymbolTableRecord
100
AcDbBlockTableRecord
  2
*Paper_Space
340
1E
 70
0
280
1
281
0
  0
ENDTAB
  0
ENDSEC
  0
SECTION
  2
BLOCKS
  0
BLOCK
  5
18
330
17
100
AcDbEntity
  8
0
100
AcDbBlockBegin
  2
*Model_Space
 70
0
 10
0.0
 20
0.0
 30
0.0
  3
*Model_Space
  1

  0
ENDBLK
  5
19
330
17
100
AcDbEntity
  8
0
100
AcDbBlockEnd
  0
BLOCK
  5
1C
330
1B
100
AcDbEntity
  8
0
100
AcDbBlockBegin
  2
*Paper_Space
 70
0
 10
0.0
 20
0.0
 30
0.0
  3
*Paper_Space
  1

  0
ENDBLK
  5
1D
330
1B
100
AcDbEntity
  8
0
100
AcDbBlockEnd
  0
ENDSEC
  0
SECTION
  2
ENTITIES
  0
LWPOLYLINE
  5
2F
330
17
100
AcDbEntity
  8
NOZZLE_CONTOUR
100
AcDbPolyline
 90
354
 70
0
 10
-108.95163773909258
 20
-25.0
 10
-33.95163773909258
 20
-25.0
 10
-33.95163773909258
 20
-25.0
 10
-33.8438135073377
 20
-24.9997872234585
 10
-33.73599095511921
 20
-24.999148897148352
 10
-33.62817176194735
 20
-24.998085031012504
 10
-33.52035760728002
 20
-24.9965956416224
 10
-33.41255017049665
 20
-24.99468075217767
 10
-33.30475113087201
 20
-24.992340392505817
 10
-33.196962167550105
 20
-24.98957459906172
 10
-33.08918495951796
 20
-24.98638341492707
 10
-32.981421185579485
 20
-24.982766889809707
 10
-32.87367252432936
 20
-24.97872508004285
 10
-32.76594065412683
 20
-24.974258048584204
 10
-32.65822725306961
 20
-24.969365865015
 10
-32.550533998967744
 20
-24.96404860553888
 10
-32.44286256931742
 20
-24.95830635298075
 10
-32.335214641274895
 20
-24.952139196785453
 10
-32.22759189163033
 20
-24.9455472330164
 10
-32.119995996781746
 20
-24.93853056435406
 10
-32.01242863270879
 20
-24.931089300094374
 10
-31.904891474946727
 20
-24.92322355614704
 10
-31.797386198560325
 20
-24.91493345503371
 10
-31.68991447811772
 20
-24.906219125886082
 10
-31.582477987664376
 20
-24.897080704443905
 10
-31.475078400696983
 20
-24.887518333052824
 10
-31.367717390137418
 20
-24.877532160662213
 10
-31.260396628306648
 20
-24.867122342822817
 10
-31.153117786898704
 20
-24.85628904168435
 10
-31.045882536954657
 20
-24.845032425992947
 10
-30.93869254883655
 20
-24.833352671088573
 10
-30.8315494922014
 20
-24.82124995890225
 10
-30.724455035975215
 20
-24.808724477953255
 10
-30.617410848326944
 20
-24.795776423346158
 10
-30.510418596642534
 20
-24.782405996767803
 10
-30.403479947498955
 20
-24.76861340648416
 10
-30.29659656663821
 20
-24.75439886733708
 10
-30.189770118941432
 20
-24.739762600740942
 10
-30.0830022684029
 20
-24.72470483467922
 10
-29.976294678104182
 20
-24.709225803700914
 10
-29.869649010188173
 20
-24.693325748916912
 10
-29.763066925833222
 20
-24.677004917996214
 10
-29.656550085227288
 20
-24.660263565162108
 10
-29.55010014754203
 20
-24.64310195118817
 10
-29.443718770906987
 20
-24.625520343394236
 10
-29.337407612383757
 20
-24.607519015642207
 10
-29.231168327940182
 20
-24.58909824833182
 10
-29.12500257242454
 20
-24.57025832839624
 10
-29.01891199953977
 20
-24.550999549297625
 10
-28.912898261817748
 20
-24.531322211022534
 10
-28.806963010593492
 20
-24.511226620077263
 10
-28.701107895979465
 20
-24.490713089483066
 10
-28.595334566839902
 20
-24.46978193877128
 10
-28.489644670765063
 20
-24.448433493978353
 10
-28.38403985404562
 20
-24.42666808764076
 10
-28.278521761647006
 20
-24.404486058789825
 10
-28.173092037183764
 20
-24.38188775294644
 10
-28.067752322893973
 20
-24.358873522115683
 10
-27.962504259613652
 20
-24.335443724781335
 10
-27.85734948675122
 20
-24.311598725900293
 10
-27.75228964226194
 20
-24.28733889689689
 10
-27.647326362622408
 20
-24.262664615657112
 10
-27.542461282805064
 20
-24.2375762665227
 10
-27.437696036252753
 20
-24.212074240285176
 10
-27.333032254853226
 20
-24.186158934179748
 10
-27.228471568913758
 20
-24.15983075187912
 10
-27.124015607135757
 20
-24.133090103487216
 10
-27.019665996589374
 20
-24.10593740553279
 10
-26.91542436268816
 20
-24.078373080962916
 10
-26.811292329163784
 20
-24.05039755913643
 10
-26.70727151804068
 20
-24.02201127581723
 10
-26.603363549610826
 20
-23.99321467316748
 10
-26.499570042408504
 20
-23.964008199740725
 10
-26.39589261318506
 20
-23.93439231047492
 10
-26.292332876883744
 20
-23.904367466685333
 10
-26.18889244661456
 20
-23.873934136057343
 10
-26.085572933629113
 20
-23.843092792639194
 10
-25.982375947295534
 20
-23.811843916834565
 10
-25.879303095073396
 20
-23.78018799539512
 10
-25.776355982488692
 20
-23.74812552141292
 10
-25.673536213108818
 20
-23.715656994312727
 10
-25.57084538851759
 20
-23.682782919844247
 10
-25.46828510829029
 20
-23.649503810074226
 10
-25.36585696996878
 20
-23.615820183378506
 10
-25.263562569036594
 20
-23.58173256443392
 10
-25.161403498894074
 20
-23.547241484210137
 10
-25.059381350833597
 20
-23.512347479961385
 10
-24.95749771401473
 20
-23.477051095218084
 10
-24.855754175439504
 20
-23.44135287977838
 10
-24.754152319927723
 20
-23.40525338969958
 10
-24.652693730092217
 20
-23.368753187289496
 10
-24.551379986314235
 20
-23.33185284109767
 10
-24.45021266671882
 20
-23.29455292590654
 10
-24.349193347150212
 20
-23.256854022722468
 10
-24.24832360114732
 20
-23.218756718766706
 10
-24.147604999919192
 20
-23.18026160746623
 10
-24.04703911232056
 20
-23.14136928844452
 10
-23.946627504827404
 20
-23.102080367512194
 10
-23.846371741512524
 20
-23.062395456657597
 10
-23.7462733840212
 20
-23.022315174037246
 10
-23.646333991546882
 20
-22.98184014396622
 10
-23.546555120806865
 20
-22.940970996908423
 10
-23.446938326018042
 20
-22.899708369466754
 10
-23.347485158872757
 20
-22.858052904373228
 10
-23.24819716851455
 20
-22.816005250478927
 10
-23.14907590151408
 20
-22.773566062743903
 10
-23.050122901845025
 20
-22.730736002226987
 10
-22.951339710860026
 20
-22.687515736075483
 10
-22.852727867266665
 20
-22.64390593751477
 10
-22.754288907103536
 20
-22.599907285837833
 10
-22.656024363716277
 20
-22.55552046639467
 10
-22.557935767733717
 20
-22.510746170581605
 10
-22.460024647043994
 20
-22.46558509583055
 10
-22.36229252677082
 20
-22.420037945598114
 10
-22.264740929249655
 20
-22.37410542935466
 10
-22.167371374004045
 20
-22.327788262573236
 10
-22.070185377721913
 20
-22.281087166718454
 10
-21.97318445423199
 20
-22.23400286923524
 10
-21.87637011448016
 20
-22.186536103537502
 10
-21.77974386650599
 20
-22.138687608996705
 10
-21.683307215419205
 20
-22.09045813093036
 10
-21.587061663376254
 20
-22.04184842059041
 10
-21.491008709556905
 20
-21.992859235151524
 10
-21.39514985014091
 20
-21.94349133769932
 10
-21.29948657828468
 20
-21.893745497218458
 10
-21.20402038409803
 20
-21.84362248858067
 10
-21.10875275462098
 20
-21.793123092532703
 10
-21.01368517380058
 20
-21.742248095684122
 10
-20.918819122467795
 20
-21.690998290495095
 10
-20.824156078314466
 20
-21.639374475264045
 10
-20.729697515870228
 20
-21.587377454115177
 10
-20.63544490647962
 20
-21.53500803698601
 10
-20.541399718279123
 20
-21.48226703961472
 10
-20.447563416174283
 20
-21.429155283527425
 10
-20.35393746181692
 20
-21.375673596025443
 10
-20.26052331358235
 20
-21.32182281017235
 10
-20.167322426546654
 20
-21.26760376478102
 10
-20.074336252464043
 20
-21.213017304400584
 10
-19.981566239744218
 20
-21.158064279303236
 10
-19.889013833429814
 20
-21.10274554547101
 10
-19.796680475173908
 20
-21.04706196458245
 10
-19.704567603217534
 20
-20.991014403999184
 10
-19.612676652367306
 20
-20.93460373675239
 10
-19.52100905397306
 20
-20.87783084152925
 10
-19.429566235905554
 20
-20.820696602659204
 10
-19.338349622534224
 20
-20.763201910100218
 10
-19.247360634705018
 20
-20.7053476594249
 10
-19.156600689718232
 20
-20.647134751806554
 10
-19.066071201306457
 20
-20.58856409400515
 10
-18.975773579612557
 20
-20.52963659835319
 10
-18.885709231167684
 20
-20.470353182741505
 10
-18.7958795588694
 20
-20.410714770604955
 10
-18.706285961959797
 20
-20.350722290908028
 10
-18.616929836003706
 20
-20.290376678130407
 10
-18.52781257286698
 20
-20.229678872252386
 10
-18.438935560694787
 20
-20.16862981874023
 10
-18.350300183890003
 20
-20.107230468531455
 10
-18.261907823091637
 20
-20.045481778020008
 10
-18.17375985515334
 20
-19.98338470904138
 10
-18.08585765312195
 20
-19.92094022885763
 10
-17.998202586216095
 20
-19.858149310142284
 10
-17.910796019804884
 20
-19.795012930965232
 10
-17.823639315386625
 20
-19.73153207477744
 10
-17.736733830567623
 20
-19.667707730395684
 10
-17.650080919041038
 20
-19.603540891987112
 10
-17.563681930565778
 20
-19.539032559053766
 10
-17.477538210945514
 20
-19.47418373641703
 10
-17.391651102007664
 20
-19.408995434201945
 10
-17.306021941582543
 20
-19.34346866782151
 10
-17.220652063482497
 20
-19.277604457960848
 10
-17.135542797481126
 20
-19.21140383056129
 10
-17.050695469292577
 20
-19.14486781680445
 10
-16.96611140055089
 20
-19.077997453096085
 10
-16.881791908789427
 20
-19.010793781050015
 10
-16.797738307420328
 20
-18.943257847471877
 10
-16.71395190571406
 20
-18.875390704342802
 10
-16.630434008779023
 20
-18.807193408803062
 10
-16.547185917541224
 20
-18.73866702313557
 10
-16.464208928724013
 20
-18.669812614749357
 10
-16.381504334827884
 20
-18.60063125616294
 10
-16.299073424110333
 20
-18.5311240249876
 10
-16.216917480565805
 20
-18.46129200391063
 10
-16.135037783905684
 20
-18.391136280678428
 10
-16.05343560953837
 20
-18.32065794807959
 10
-15.972112228549392
 20
-18.24985810392786
 10
-15.891068907681639
 20
-18.17873785104506
 10
-15.810306909315603
 20
-18.10729829724389
 10
-15.729827491449715
 20
-18.035540555310668
 10
-15.649631907680778
 20
-17.963465742988014
 10
-15.56972140718441
 20
-17.891074982957424
 10
-15.49009723469559
 20
-17.8183694028218
 10
-15.410760630489296
 20
-17.745350135087865
 10
-15.331712830361145
 20
-17.672018317148535
 10
-15.25295506560818
 20
-17.598375091265208
 10
-15.174488563009668
 20
-17.524421604549946
 10
-15.096314544807992
 20
-17.450159008947644
 10
-15.018434228689639
 20
-17.37558846121805
 10
-14.940848827766185
 20
-17.300711122917775
 10
-14.86355955055545
 20
-17.225528160382183
 10
-14.78656760096263
 20
-17.150040744707226
 10
-14.709874178261575
 20
-17.074250051731212
 10
-14.633480477076102
 20
-16.99815726201648
 10
-14.633480477076105
 20
-16.998157262016477
 10
-6.632661607529816
 20
-8.997338392470185
 10
-6.632661607529816
 20
-8.997338392470185
 10
-6.5656650256355755
 20
-8.931011809896528
 10
-6.498668443741336
 20
-8.865999079071576
 10
-6.431671861847095
 20
-8.802262668971196
 10
-6.364675279952854
 20
-8.739767160628238
 10
-6.297678698058614
 20
-8.678479086126636
 10
-6.230682116164373
 20
-8.618366783173164
 10
-6.163685534270132
 20
-8.559400263440935
 10
-6.096688952375892
 20
-8.501551093121467
 10
-6.029692370481651
 20
-8.444792284327796
 10
-5.962695788587411
 20
-8.389098196166312
 10
-5.89569920669317
 20
-8.334444444444443
 10
-5.82870262479893
 20
-8.280807819109501
 10
-5.761706042904689
 20
-8.228166208624001
 10
-5.694709461010448
 20
-8.176498530577854
 10
-5.627712879116208
 20
-8.125784667919667
 10
-5.560716297221967
 20
-8.07600541026074
 10
-5.493719715327726
 20
-8.027142399767083
 10
-5.426723133433486
 20
-7.97917808120867
 10
-5.359726551539246
 20
-7.932095655782333
 10
-5.292729969645005
 20
-7.88587903836584
 10
-5.225733387750765
 20
-7.840512817897001
 10
-5.158736805856524
 20
-7.795982220603452
 10
-5.091740223962283
 20
-7.752273075836881
 10
-5.024743642068042
 20
-7.7093717842902905
 10
-4.957747060173802
 20
-7.6672652883988395
 10
-4.890750478279561
 20
-7.625941044744346
 10
-4.8237538963853215
 20
-7.585386998300825
 10
-4.756757314491081
 20
-7.545591558373884
 10
-4.68976073259684
 20
-7.506543576100581
 10
-4.622764150702599
 20
-7.468232323388586
 10
-4.555767568808358
 20
-7.430647473184607
 10
-4.488770986914118
 20
-7.393779080971781
 10
-4.421774405019878
 20
-7.357617567404715
 10
-4.354777823125637
 20
-7.3221537019987455
 10
-4.2877812412313965
 20
-7.28737858779723
 10
-4.220784659337156
 20
-7.253283646947086
 10
-4.153788077442915
 20
-7.219860607118745
 10
-4.086791495548675
 20
-7.187101488711889
 10
-4.019794913654434
 20
-7.154998592793159
 10
-3.9527983317601936
 20
-7.123544489716423
 10
-3.885801749865953
 20
-7.092732008380041
 10
-3.8188051679717123
 20
-7.06255422607925
 10
-3.751808586077472
 20
-7.033004458915
 10
-3.6848120041832315
 20
-7.004076252723587
 10
-3.6178154222889907
 20
-6.97576337449409
 10
-3.5508188403947503
 20
-6.948059804243197
 10
-3.4838222585005094
 20
-6.920959727319181
 10
-3.416825676606269
 20
-6.894457527108914
 10
-3.3498290947120286
 20
-6.868547778123721
 10
-3.2828325128177878
 20
-6.843225239441582
 10
-3.2158359309235474
 20
-6.818484848484848
 10
-3.1488393490293065
 20
-6.794321715114075
 10
-3.081842767135066
 20
-6.770731116019942
 10
-3.0148461852408257
 20
-6.74770848939651
 10
-2.947849603346585
 20
-6.725249429880174
 10
-2.8808530214523445
 20
-6.703349683739768
 10
-2.813856439558104
 20
-6.682005144304263
 10
-2.746859857663863
 20
-6.661211847615373
 10
-2.679863275769623
 20
-6.640965968293294
 10
-2.6128666938753824
 20
-6.621263815604504
 10
-2.5458701119811415
 20
-6.60210182972132
 10
-2.4788735300869007
 20
-6.583476578163603
 10
-2.4118769481926607
 20
-6.565384752413545
 10
-2.34488036629842
 20
-6.54782316469514
 10
-2.277883784404179
 20
-6.530788744910442
 10
-2.210887202509939
 20
-6.514278537725181
 10
-2.1438906206156982
 20
-6.4982896997968655
 10
-2.0768940387214574
 20
-6.482819497138845
 10
-2.0098974568272174
 20
-6.467865302614271
 10
-1.9429008749329766
 20
-6.453424593554267
 10
-1.8759042930387357
 20
-6.43949494949495
 10
-1.808907711144495
 20
-6.426074050028326
 10
-1.741911129250255
 20
-6.413159672762358
 10
-1.674914547356014
 20
-6.400749691385807
 10
-1.6079179654617732
 20
-6.388842073833752
 10
-1.5409213835675333
 20
-6.377434880549918
 10
-1.4739248016732924
 20
-6.366526262842198
 10
-1.4069282197790516
 20
-6.356114461328016
 10
-1.3399316378848116
 20
-6.346197804466355
 10
-1.2729350559905708
 20
-6.336774707173495
 10
-1.20593847409633
 20
-6.327843669519728
 10
-1.13894189220209
 20
-6.319403275504458
 10
-1.0719453103078491
 20
-6.311452191907314
 10
-1.0049487284136083
 20
-6.303989167213032
 10
-0.9379521465193683
 20
-6.297013030608062
 10
-0.8709555646251275
 20
-6.29052269104697
 10
-0.8039589827308866
 20
-6.284517136386889
 10
-0.7369624008366467
 20
-6.278995432588374
 10
-0.6699658189424058
 20
-6.273956722981193
 10
-0.602969237048165
 20
-6.269400227593664
 10
-0.5359726551539241
 20
-6.265325242544339
 10
-0.46897607325968416
 20
-6.261731139494879
 10
-0.4019794913654433
 20
-6.258617365163154
 10
-0.33498290947120246
 20
-6.255983440895669
 10
-0.2679863275769625
 20
-6.253828962298533
 10
-0.20098974568272165
 20
-6.252153598926331
 10
-0.1339931637884808
 20
-6.250957094028307
 10
-0.06699658189424085
 20
-6.2502392643514355
 10
0.0
 20
-6.25
 10
0.0
 20
-6.25
 10
4.06365406473103
 20
-7.8081376152341875
 10
8.298662901460846
 20
-9.395783472048041
 10
9.361731997975006
 20
-9.785278450825512
 10
10.24027950164059
 20
-10.099741228842237
 10
11.029172437470502
 20
-10.375481043508895
 10
11.766264931604287
 20
-10.626950497476221
 10
12.471134596418656
 20
-10.861561478536228
 10
13.155422243419048
 20
-11.083656190979656
 10
13.826708613906833
 20
-11.296000019370409
 10
14.490265448005532
 20
-11.500457140465137
 10
15.149949089263378
 20
-11.698335788287824
 10
15.80869822265753
 20
-11.890580748579072
 10
16.468830146156098
 20
-12.077887989545498
 10
17.132226601718166
 20
-12.26077655168302
 10
17.800455395843027
 20
-12.439635556277644
 10
18.47485285681284
 20
-12.614756019155912
 10
19.15658143520226
 20
-12.786353007845916
 10
19.846670987789032
 20
-12.954581450953603
 10
20.546049037135727
 20
-13.119547651803966
 10
21.255563393801985
 20
-13.281317820525237
 10
21.975999370358444
 20
-13.43992449003289
 10
22.708093090953877
 20
-13.595371400012766
 10
23.4525419332492
 20
-13.747637251765537
 10
24.2100128315931
 20
-13.896678617181523
 10
24.981148962984623
 20
-14.042432204522711
 10
25.766575194905073
 20
-14.184816628287239
 10
26.566902574584248
 20
-14.323733791697208
 10
27.38273206859812
 20
-14.459069962826739
 10
28.21465771079016
 20
-14.590696605544267
 10
29.063269279345302
 20
-14.718471011944796
 10
29.929154596384627
 20
-14.842236772223218
 10
30.81290152292208
 20
-14.96182410991467
 10
31.715099706523816
 20
-15.077050104359051
 10
32.63634212718744
 20
-15.18771881761035
 10
33.57722647786079
 20
-15.293621339436449
 10
34.53835640895948
 20
-15.394535761273824
 10
35.520342660717944
 20
-15.490227087818564
 10
36.52380410285744
 20
-15.580447093209198
 10
37.54936869759979
 20
-15.664934127379775
 10
38.59767439929778
 20
-15.74341287705593
 10
39.669370001735935
 20
-15.815594084971192
 10
40.76511594236427
 20
-15.881174230150537
 10
41.88558507127206
 20
-15.939835171508108
 10
43.03146339151936
 20
-15.991243756509089
 10
44.203450776468465
 20
-16.035051396230934
 10
45.40226166895419
 20
-16.070893607810465
 10
46.62862576646467
 20
-16.098389524967168
 10
47.883288695955265
 20
-16.117141377039864
 10
49.167012681446614
 20
-16.12673393675512
  0
ENDSEC
  0
SECTION
  2
OBJECTS
  0
DICTIONARY
  5
A
330
0
100
AcDbDictionary
281
1
  3
ACAD_COLOR
350
B
  3
ACAD_GROUP
350
C
  3
ACAD_LAYOUT
350
D
  3
ACAD_MATERIAL
350
E
  3
ACAD_MLEADERSTYLE
350
F
  3
ACAD_MLINESTYLE
350
10
  3
ACAD_PLOTSETTINGS
350
11
  3
ACAD_PLOTSTYLENAME
350
12
  3
ACAD_SCALELIST
350
14
  3
ACAD_TABLESTYLE
350
15
  3
ACAD_VISUALSTYLE
350
16
  3
EZDXF_META
350
2D
  0
DICTIONARY
  5
B
330
A
100
AcDbDictionary
281
1
  0
DICTIONARY
  5
C
330
A
100
AcDbDictionary
281
1
  0
DICTIONARY
  5
D
330
A
100
AcDbDictionary
281
1
  3
Model
350
1A
  3
Layout1
350
1E
  0
DICTIONARY
  5
E
330
A
100
AcDbDictionary
281
1
  3
ByBlock
350
1F
  3
ByLayer
350
20
  3
Global
350
21
  0
DICTIONARY
  5
F
330
A
100
AcDbDictionary
281
1
  3
Standard
350
2C
  0
DICTIONARY
  5
10
330
A
100
AcDbDictionary
281
1
  3
Standard
350
22
  0
DICTIONARY
  5
11
330
A
100
AcDbDictionary
281
1
  0
ACDBDICTIONARYWDFLT
  5
12
330
A
100
AcDbDictionary
281
1
  3
Normal
350
13
100
AcDbDictionaryWithDefault
340
13
  0
ACDBPLACEHOLDER
  5
13
330
12
  0
DICTIONARY
  5
14
330
A
100
AcDbDictionary
281
1
  0
DICTIONARY
  5
15
330
A
100
AcDbDictionary
281
1
  0
DICTIONARY
  5
16
330
A
100
AcDbDictionary
281
1
  0
LAYOUT
  5
1A
330
D
100
AcDbPlotSettings
  1

  4
A3
  6

 40
7.5
 41
20.0
 42
7.5
 43
20.0
 44
420.0
 45
297.0
 46
0.0
 47
0.0
 48
0.0
 49
0.0
140
0.0
141
0.0
142
1.0
143
1.0
 70
1024
 72
1
 73
0
 74
5
  7

 75
16
 76
0
 77
2
 78
300
147
1.0
148
0.0
149
0.0
100
AcDbLayout
  1
Model
 70
1
 71
0
 10
0.0
 20
0.0
 11
420.0
 21
297.0
 12
0.0
 22
0.0
 32
0.0
 14
1e+20
 24
1e+20
 34
1e+20
 15
-1e+20
 25
-1e+20
 35
-1e+20
146
0.0
 13
0.0
 23
0.0
 33
0.0
 16
1.0
 26
0.0
 36
0.0
 17
0.0
 27
1.0
 37
0.0
 76
1
330
17
  0
LAYOUT
  5
1E
330
D
100
AcDbPlotSettings
  1

  4
A3
  6

 40
7.5
 41
20.0
 42
7.5
 43
20.0
 44
420.0
 45
297.0
 46
0.0
 47
0.0
 48
0.0
 49
0.0
140
0.0
141
0.0
142
1.0
143
1.0
 70
0
 72
1
 73
0
 74
5
  7

 75
16
 76
0
 77
2
 78
300
147
1.0
148
0.0
149
0.0
100
AcDbLayout
  1
Layout1
 70
1
 71
1
 10
0.0
 20
0.0
 11
420.0
 21
297.0
 12
0.0
 22
0.0
 32
0.0
 14
1e+20
 24
1e+20
 34
1e+20
 15
-1e+20
 25
-1e+20
 35
-1e+20
146
0.0
 13
0.0
 23
0.0
 33
0.0
 16
1.0
 26
0.0
 36
0.0
 17
0.0
 27
1.0
 37
0.0
 76
1
330
1B
  0
MATERIAL
  5
1F
102
{ACAD_REACTORS
330
E
102
}
330
E
100
AcDbMaterial
  1
ByBlock
  2

 70
0
 40
1.0
 71
1
 41
1.0
 91
-1023410177
 42
1.0
 72
1
  3

 73
1
 74
1
 75
1
 44
0.5
 73
0
 45
1.0
 46
1.0
 77
1
  4

 78
1
 79
1
170
1
 48
1.0
171
1
  6

172
1
173
1
174
1
140
1.0
141
1.0
175
1
  7

176
1
177
1
178
1
143
1.0
179
1
  8

270
1
271
1
272
1
145
1.0
146
1.0
273
1
  9

274
1
275
1
276
1
 42
1.0
 72
1
  3

 73
1
 74
1
 75
1
 94
63
  0
MATERIAL
  5
20
102
{ACAD_REACTORS
330
E
102
}
330
E
100
AcDbMaterial
  1
ByLayer
  2

 70
0
 40
1.0
 71
1
 41
1.0
 91
-1023410177
 42
1.0
 72
1
  3

 73
1
 74
1
 75
1
 44
0.5
 73
0
 45
1.0
 46
1.0
 77
1
  4

 78
1
 79
1
170
1
 48
1.0
171
1
  6

172
1
173
1
174
1
140
1.0
141
1.0
175
1
  7

176
1
177
1
178
1
143
1.0
179
1
  8

270
1
271
1
272
1
145
1.0
146
1.0
273
1
  9

274
1
275
1
276
1
 42
1.0
 72
1
  3

 73
1
 74
1
 75
1
 94
63
  0
MATERIAL
  5
21
102
{ACAD_REACTORS
330
E
102
}
330
E
100
AcDbMaterial
  1
Global
  2

 70
0
 40
1.0
 71
1
 41
1.0
 91
-1023410177
 42
1.0
 72
1
  3

 73
1
 74
1
 75
1
 44
0.5
 73
0
 45
1.0
 46
1.0
 77
1
  4

 78
1
 79
1
170
1
 48
1.0
171
1
  6

172
1
173
1
174
1
140
1.0
141
1.0
175
1
  7

176
1
177
1
178
1
143
1.0
179
1
  8

270
1
271
1
272
1
145
1.0
146
1.0
273
1
  9

274
1
275
1
276
1
 42
1.0
 72
1
  3

 73
1
 74
1
 75
1
 94
63
  0
MLINESTYLE
  5
22
102
{ACAD_REACTORS
330
10
102
}
330
10
100
AcDbMlineStyle
  2
Standard
 70
0
  3

 62
256
 51
90.0
 52
90.0
 71
2
 49
0.5
 62
256
  6
BYLAYER
 49
-0.5
 62
256
  6
BYLAYER
  0
MLEADERSTYLE
  5
2C
102
{ACAD_REACTORS
330
F
102
}
330
F
100
AcDbMLeaderStyle
179
2
170
2
171
1
172
0
 90
2
 40
0.0
 41
0.0
173
1
 91
-1056964608
 92
-2
290
1
 42
2.0
291
1
 43
8.0
  3
Standard
 44
4.0
300

342
29
174
1
175
1
176
0
178
1
 93
-1056964608
 45
4.0
292
0
297
0
 46
4.0
 94
-1056964608
 47
1.0
 49
1.0
140
1.0
294
1
141
0.0
177
0
142
1.0
295
0
296
0
143
3.75
271
0
272
9
273
9
  0
DICTIONARY
  5
2D
330
A
100
AcDbDictionary
280
1
281
1
  3
CREATED_BY_EZDXF
350
2E
  3
WRITTEN_BY_EZDXF
350
32
  0
DICTIONARYVAR
  5
2E
330
2D
100
DictionaryVariables
280
0
  1
1.4.3 @ 2025-12-08T21:18:25.687874+00:00
  0
DICTIONARYVAR
  5
32
330
2D
100
DictionaryVariables
280
0
  1
1.4.3 @ 2025-12-08T21:18:25.691377+00:00
  0
ENDSEC
  0
EOF
