  0
SECTION
  2
HEADER
  9
$ACADVER
  1
AC1032
  9
$ACADMAINTVER
 90
4
  9
$DWGCODEPAGE
  3
ANSI_1252
  9
$LASTSAVEDBY
  1
ezdxf
  9
$REQUIREDVERSIONS
160
0
  9
$INSBASE
 10
0.0
 20
0.0
 30
0.0
  9
$EXTMIN
 10
1e+20
 20
1e+20
 30
1e+20
  9
$EXTMAX
 10
-1e+20
 20
-1e+20
 30
-1e+20
  9
$LIMMIN
 10
0.0
 20
0.0
  9
$LIMMAX
 10
420.0
 20
297.0
  9
$ORTHOMODE
 70
0
  9
$REGENMODE
 70
1
  9
$FILLMODE
 70
1
  9
$QTEXTMODE
 70
0
  9
$MIRRTEXT
 70
1
  9
$LTSCALE
 40
1.0
  9
$ATTMODE
 70
1
  9
$TEXTSIZE
 40
2.5
  9
$TRACEWID
 40
1.0
  9
$TEXTSTYLE
  7
Standard
  9
$CLAYER
  8
0
  9
$CELTYPE
  6
ByLayer
  9
$CECOLOR
 62
256
  9
$CELTSCALE
 40
1.0
  9
$DISPSILH
 70
0
  9
$DIMSCALE
 40
1.0
  9
$DIMASZ
 40
2.5
  9
$DIMEXO
 40
0.625
  9
$DIMDLI
 40
3.75
  9
$DIMRND
 40
0.0
  9
$DIMDLE
 40
0.0
  9
$DIMEXE
 40
1.25
  9
$DIMTP
 40
0.0
  9
$DIMTM
 40
0.0
  9
$DIMTXT
 40
2.5
  9
$DIMCEN
 40
2.5
  9
$DIMTSZ
 40
0.0
  9
$DIMTOL
 70
0
  9
$DIMLIM
 70
0
  9
$DIMTIH
 70
0
  9
$DIMTOH
 70
0
  9
$DIMSE1
 70
0
  9
$DIMSE2
 70
0
  9
$DIMTAD
 70
1
  9
$DIMZIN
 70
8
  9
$DIMBLK
  1

  9
$DIMASO
 70
1
  9
$DIMSHO
 70
1
  9
$DIMPOST
  1

  9
$DIMAPOST
  1

  9
$DIMALT
 70
0
  9
$DIMALTD
 70
3
  9
$DIMALTF
 40
0.03937007874
  9
$DIMLFAC
 40
1.0
  9
$DIMTOFL
 70
1
  9
$DIMTVP
 40
0.0
  9
$DIMTIX
 70
0
  9
$DIMSOXD
 70
0
  9
$DIMSAH
 70
0
  9
$DIMBLK1
  1

  9
$DIMBLK2
  1

  9
$DIMSTYLE
  2
ISO-25
  9
$DIMCLRD
 70
0
  9
$DIMCLRE
 70
0
  9
$DIMCLRT
 70
0
  9
$DIMTFAC
 40
1.0
  9
$DIMGAP
 40
0.625
  9
$DIMJUST
 70
0
  9
$DIMSD1
 70
0
  9
$DIMSD2
 70
0
  9
$DIMTOLJ
 70
0
  9
$DIMTZIN
 70
8
  9
$DIMALTZ
 70
0
  9
$DIMALTTZ
 70
0
  9
$DIMUPT
 70
0
  9
$DIMDEC
 70
2
  9
$DIMTDEC
 70
2
  9
$DIMALTU
 70
2
  9
$DIMALTTD
 70
3
  9
$DIMTXSTY
  7
Standard
  9
$DIMAUNIT
 70
0
  9
$DIMADEC
 70
0
  9
$DIMALTRND
 40
0.0
  9
$DIMAZIN
 70
0
  9
$DIMDSEP
 70
44
  9
$DIMATFIT
 70
3
  9
$DIMFRAC
 70
0
  9
$DIMLDRBLK
  1

  9
$DIMLUNIT
 70
2
  9
$DIMLWD
 70
-2
  9
$DIMLWE
 70
-2
  9
$DIMTMOVE
 70
0
  9
$DIMFXL
 40
1.0
  9
$DIMFXLON
 70
0
  9
$DIMJOGANG
 40
0.785398163397
  9
$DIMTFILL
 70
0
  9
$DIMTFILLCLR
 70
0
  9
$DIMARCSYM
 70
0
  9
$DIMLTYPE
  6

  9
$DIMLTEX1
  6

  9
$DIMLTEX2
  6

  9
$DIMTXTDIRECTION
 70
0
  9
$LUNITS
 70
2
  9
$LUPREC
 70
4
  9
$SKETCHINC
 40
1.0
  9
$FILLETRAD
 40
10.0
  9
$AUNITS
 70
0
  9
$AUPREC
 70
2
  9
$MENU
  1
.
  9
$ELEVATION
 40
0.0
  9
$PELEVATION
 40
0.0
  9
$THICKNESS
 40
0.0
  9
$LIMCHECK
 70
0
  9
$CHAMFERA
 40
0.0
  9
$CHAMFERB
 40
0.0
  9
$CHAMFERC
 40
0.0
  9
$CHAMFERD
 40
0.0
  9
$SKPOLY
 70
0
  9
$TDCREATE
 40
2461007.6267708335
  9
$TDUCREATE
 40
2458532.153996898
  9
$TDUPDATE
 40
2461007.6267708335
  9
$TDUUPDATE
 40
2458532.1544311
  9
$TDINDWG
 40
0.0
  9
$TDUSRTIMER
 40
0.0
  9
$USRTIMER
 70
1
  9
$ANGBASE
 50
0.0
  9
$ANGDIR
 70
0
  9
$PDMODE
 70
0
  9
$PDSIZE
 40
0.0
  9
$PLINEWID
 40
0.0
  9
$SPLFRAME
 70
0
  9
$SPLINETYPE
 70
6
  9
$SPLINESEGS
 70
8
  9
$HANDSEED
  5
33
  9
$SURFTAB1
 70
6
  9
$SURFTAB2
 70
6
  9
$SURFTYPE
 70
6
  9
$SURFU
 70
6
  9
$SURFV
 70
6
  9
$UCSBASE
  2

  9
$UCSNAME
  2

  9
$UCSORG
 10
0.0
 20
0.0
 30
0.0
  9
$UCSXDIR
 10
1.0
 20
0.0
 30
0.0
  9
$UCSYDIR
 10
0.0
 20
1.0
 30
0.0
  9
$UCSORTHOREF
  2

  9
$UCSORTHOVIEW
 70
0
  9
$UCSORGTOP
 10
0.0
 20
0.0
 30
0.0
  9
$UCSORGBOTTOM
 10
0.0
 20
0.0
 30
0.0
  9
$UCSORGLEFT
 10
0.0
 20
0.0
 30
0.0
  9
$UCSORGRIGHT
 10
0.0
 20
0.0
 30
0.0
  9
$UCSORGFRONT
 10
0.0
 20
0.0
 30
0.0
  9
$UCSORGBACK
 10
0.0
 20
0.0
 30
0.0
  9
$PUCSBASE
  2

  9
$PUCSNAME
  2

  9
$PUCSORG
 10
0.0
 20
0.0
 30
0.0
  9
$PUCSXDIR
 10
1.0
 20
0.0
 30
0.0
  9
$PUCSYDIR
 10
0.0
 20
1.0
 30
0.0
  9
$PUCSORTHOREF
  2

  9
$PUCSORTHOVIEW
 70
0
  9
$PUCSORGTOP
 10
0.0
 20
0.0
 30
0.0
  9
$PUCSORGBOTTOM
 10
0.0
 20
0.0
 30
0.0
  9
$PUCSORGLEFT
 10
0.0
 20
0.0
 30
0.0
  9
$PUCSORGRIGHT
 10
0.0
 20
0.0
 30
0.0
  9
$PUCSORGFRONT
 10
0.0
 20
0.0
 30
0.0
  9
$PUCSORGBACK
 10
0.0
 20
0.0
 30
0.0
  9
$USERI1
 70
0
  9
$USERI2
 70
0
  9
$USERI3
 70
0
  9
$USERI4
 70
0
  9
$USERI5
 70
0
  9
$USERR1
 40
0.0
  9
$USERR2
 40
0.0
  9
$USERR3
 40
0.0
  9
$USERR4
 40
0.0
  9
$USERR5
 40
0.0
  9
$WORLDVIEW
 70
1
  9
$SHADEDGE
 70
3
  9
$SHADEDIF
 70
70
  9
$TILEMODE
 70
1
  9
$MAXACTVP
 70
64
  9
$PINSBASE
 10
0.0
 20
0.0
 30
0.0
  9
$PLIMCHECK
 70
0
  9
$PEXTMIN
 10
1e+20
 20
1e+20
 30
1e+20
  9
$PEXTMAX
 10
-1e+20
 20
-1e+20
 30
-1e+20
  9
$PLIMMIN
 10
0.0
 20
0.0
  9
$PLIMMAX
 10
420.0
 20
297.0
  9
$UNITMODE
 70
0
  9
$VISRETAIN
 70
1
  9
$PLINEGEN
 70
0
  9
$PSLTSCALE
 70
1
  9
$TREEDEPTH
 70
3020
  9
$CMLSTYLE
  2
Standard
  9
$CMLJUST
 70
0
  9
$CMLSCALE
 40
20.0
  9
$PROXYGRAPHICS
 70
1
  9
$MEASUREMENT
 70
1
  9
$CELWEIGHT
370
-1
  9
$ENDCAPS
280
0
  9
$JOINSTYLE
280
0
  9
$LWDISPLAY
290
0
  9
$INSUNITS
 70
6
  9
$HYPERLINKBASE
  1

  9
$STYLESHEET
  1

  9
$XEDIT
290
1
  9
$CEPSNTYPE
380
0
  9
$PSTYLEMODE
290
1
  9
$FINGERPRINTGUID
  2
{3D0CC9E0-B410-4E3A-8747-C3CBB86DBAAA}
  9
$VERSIONGUID
  2
{DED7ADC5-07B3-48B1-A07F-0B1A87FB865E}
  9
$EXTNAMES
290
1
  9
$PSVPSCALE
 40
0.0
  9
$OLESTARTUP
290
0
  9
$SORTENTS
280
127
  9
$INDEXCTL
280
0
  9
$HIDETEXT
280
1
  9
$XCLIPFRAME
280
1
  9
$HALOGAP
280
0
  9
$OBSCOLOR
 70
257
  9
$OBSLTYPE
280
0
  9
$INTERSECTIONDISPLAY
280
0
  9
$INTERSECTIONCOLOR
 70
257
  9
$DIMASSOC
280
2
  9
$PROJECTNAME
  1

  9
$CAMERADISPLAY
290
0
  9
$LENSLENGTH
 40
50.0
  9
$CAMERAHEIGHT
 40
0.0
  9
$STEPSPERSEC
 40
24.0
  9
$STEPSIZE
 40
100.0
  9
$3DDWFPREC
 40
2.0
  9
$PSOLWIDTH
 40
0.005
  9
$PSOLHEIGHT
 40
0.08
  9
$LOFTANG1
 40
1.570796326795
  9
$LOFTANG2
 40
1.570796326795
  9
$LOFTMAG1
 40
0.0
  9
$LOFTMAG2
 40
0.0
  9
$LOFTPARAM
 70
7
  9
$LOFTNORMALS
280
1
  9
$LATITUDE
 40
37.795
  9
$LONGITUDE
 40
-122.394
  9
$NORTHDIRECTION
 40
0.0
  9
$TIMEZONE
 70
-8000
  9
$LIGHTGLYPHDISPLAY
280
1
  9
$TILEMODELIGHTSYNCH
280
1
  9
$CMATERIAL
347
20
  9
$SOLIDHIST
280
0
  9
$SHOWHIST
280
1
  9
$DWFFRAME
280
2
  9
$DGNFRAME
280
2
  9
$REALWORLDSCALE
290
1
  9
$INTERFERECOLOR
 62
256
  9
$CSHADOW
280
0
  9
$SHADOWPLANELOCATION
 40
0.0
  0
ENDSEC
  0
SECTION
  2
CLASSES
  0
CLASS
  1
ACDBDICTIONARYWDFLT
  2
AcDbDictionaryWithDefault
  3
ObjectDBX Classes
 90
0
 91
0
280
0
281
0
  0
CLASS
  1
SUN
  2
AcDbSun
  3
SCENEOE
 90
1153
 91
0
280
0
281
0
  0
CLASS
  1
VISUALSTYLE
  2
AcDbVisualStyle
  3
ObjectDBX Classes
 90
4095
 91
0
280
0
281
0
  0
CLASS
  1
MATERIAL
  2
AcDbMaterial
  3
ObjectDBX Classes
 90
1153
 91
0
280
0
281
0
  0
CLASS
  1
SCALE
  2
AcDbScale
  3
ObjectDBX Classes
 90
1153
 91
0
280
0
281
0
  0
CLASS
  1
TABLESTYLE
  2
AcDbTableStyle
  3
ObjectDBX Classes
 90
4095
 91
0
280
0
281
0
  0
CLASS
  1
MLEADERSTYLE
  2
AcDbMLeaderStyle
  3
ACDB_MLEADERSTYLE_CLASS
 90
4095
 91
0
280
0
281
0
  0
CLASS
  1
DICTIONARYVAR
  2
AcDbDictionaryVar
  3
ObjectDBX Classes
 90
0
 91
0
280
0
281
0
  0
CLASS
  1
CELLSTYLEMAP
  2
AcDbCellStyleMap
  3
ObjectDBX Classes
 90
1152
 91
0
280
0
281
0
  0
CLASS
  1
MENTALRAYRENDERSETTINGS
  2
AcDbMentalRayRenderSettings
  3
SCENEOE
 90
1024
 91
0
280
0
281
0
  0
CLASS
  1
ACDBDETAILVIEWSTYLE
  2
AcDbDetailViewStyle
  3
ObjectDBX Classes
 90
1025
 91
0
280
0
281
0
  0
CLASS
  1
ACDBSECTIONVIEWSTYLE
  2
AcDbSectionViewStyle
  3
ObjectDBX Classes
 90
1025
 91
0
280
0
281
0
  0
CLASS
  1
RASTERVARIABLES
  2
AcDbRasterVariables
  3
ISM
 90
0
 91
0
280
0
281
0
  0
CLASS
  1
ACDBPLACEHOLDER
  2
AcDbPlaceHolder
  3
ObjectDBX Classes
 90
0
 91
0
280
0
281
0
  0
CLASS
  1
LAYOUT
  2
AcDbLayout
  3
ObjectDBX Classes
 90
0
 91
0
280
0
281
0
  0
ENDSEC
  0
SECTION
  2
TABLES
  0
TABLE
  2
VPORT
  5
8
330
0
100
AcDbSymbolTable
 70
1
  0
VPORT
  5
23
330
8
100
AcDbSymbolTableRecord
100
AcDbViewportTableRecord
  2
*Active
 70
0
 10
0.0
 20
0.0
 11
1.0
 21
1.0
 12
0.0
 22
0.0
 13
0.0
 23
0.0
 14
0.5
 24
0.5
 15
0.5
 25
0.5
 16
0.0
 26
0.0
 36
1.0
 17
0.0
 27
0.0
 37
0.0
 40
1000.0
 41
1.34
 42
50.0
 43
0.0
 44
0.0
 50
0.0
 51
0.0
 71
0
 72
1000
 73
1
 74
3
 75
0
 76
0
 77
0
 78
0
281
0
 65
0
146
0.0
  0
ENDTAB
  0
TABLE
  2
LTYPE
  5
2
330
0
100
AcDbSymbolTable
 70
3
  0
LTYPE
  5
24
330
2
100
AcDbSymbolTableRecord
100
AcDbLinetypeTableRecord
  2
ByBlock
 70
0
  3

 72
65
 73
0
 40
0.0
  0
LTYPE
  5
25
330
2
100
AcDbSymbolTableRecord
100
AcDbLinetypeTableRecord
  2
ByLayer
 70
0
  3

 72
65
 73
0
 40
0.0
  0
LTYPE
  5
26
330
2
100
AcDbSymbolTableRecord
100
AcDbLinetypeTableRecord
  2
Continuous
 70
0
  3

 72
65
 73
0
 40
0.0
  0
ENDTAB
  0
TABLE
  2
LAYER
  5
1
330
0
100
AcDbSymbolTable
 70
2
  0
LAYER
  5
27
330
1
100
AcDbSymbolTableRecord
100
AcDbLayerTableRecord
  2
0
 70
0
 62
7
  6
Continuous
370
-3
390
13
347
21
  0
LAYER
  5
28
330
1
100
AcDbSymbolTableRecord
100
AcDbLayerTableRecord
  2
Defpoints
 70
0
 62
7
  6
Continuous
290
0
370
-3
390
13
347
21
  0
ENDTAB
  0
TABLE
  2
STYLE
  5
5
330
0
100
AcDbSymbolTable
 70
1
  0
STYLE
  5
29
330
5
100
AcDbSymbolTableRecord
100
AcDbTextStyleTableRecord
  2
Standard
 70
0
 40
0.0
 41
1.0
 50
0.0
 71
0
 42
2.5
  3
txt
  4

  0
ENDTAB
  0
TABLE
  2
VIEW
  5
7
330
0
100
AcDbSymbolTable
 70
0
  0
ENDTAB
  0
TABLE
  2
UCS
  5
6
330
0
100
AcDbSymbolTable
 70
0
  0
ENDTAB
  0
TABLE
  2
APPID
  5
3
330
0
100
AcDbSymbolTable
 70
3
  0
APPID
  5
2A
330
3
100
AcDbSymbolTableRecord
100
AcDbRegAppTableRecord
  2
ACAD
 70
0
  0
APPID
  5
30
330
3
100
AcDbSymbolTableRecord
100
AcDbRegAppTableRecord
  2
HATCHBACKGROUNDCOLOR
 70
0
  0
APPID
  5
31
330
3
100
AcDbSymbolTableRecord
100
AcDbRegAppTableRecord
  2
EZDXF
 70
0
  0
ENDTAB
  0
TABLE
  2
DIMSTYLE
  5
4
330
0
100
AcDbSymbolTable
 70
1
100
AcDbDimStyleTable
  0
DIMSTYLE
105
2B
330
4
100
AcDbSymbolTableRecord
100
AcDbDimStyleTableRecord
  2
Standard
 70
0
 40
1.0
 41
2.5
 42
0.625
 43
3.75
 44
1.25
 45
0.0
 46
0.0
 47
0.0
 48
0.0
 49
2.5
140
2.5
141
2.5
142
0.0
143
0.03937007874
144
1.0
145
0.0
146
1.0
147
0.625
148
0.0
 69
0
 70
0
 71
0
 72
0
 73
0
 74
0
 75
0
 76
0
 77
1
 78
8
 79
3
170
0
171
3
172
1
173
0
174
0
175
0
176
0
177
0
178
0
179
2
271
2
272
2
273
2
274
3
275
0
276
0
277
2
278
44
279
0
280
0
281
0
282
0
283
0
284
8
285
0
286
0
288
0
289
3
290
0
371
-2
372
-2
  0
ENDTAB
  0
TABLE
  2
BLOCK_RECORD
  5
9
330
0
100
AcDbSymbolTable
 70
2
  0
BLOCK_RECORD
  5
17
330
9
100
AcDbSymbolTableRecord
100
AcDbBlockTableRecord
  2
*Model_Space
340
1A
 70
0
280
1
281
0
  0
BLOCK_RECORD
  5
1B
330
9
100
AcDbSymbolTableRecord
100
AcDbBlockTableRecord
  2
*Paper_Space
340
1E
 70
0
280
1
281
0
  0
ENDTAB
  0
ENDSEC
  0
SECTION
  2
BLOCKS
  0
BLOCK
  5
18
330
17
100
AcDbEntity
  8
0
100
AcDbBlockBegin
  2
*Model_Space
 70
0
 10
0.0
 20
0.0
 30
0.0
  3
*Model_Space
  1

  0
ENDBLK
  5
19
330
17
100
AcDbEntity
  8
0
100
AcDbBlockEnd
  0
BLOCK
  5
1C
330
1B
100
AcDbEntity
  8
0
100
AcDbBlockBegin
  2
*Paper_Space
 70
0
 10
0.0
 20
0.0
 30
0.0
  3
*Paper_Space
  1

  0
ENDBLK
  5
1D
330
1B
100
AcDbEntity
  8
0
100
AcDbBlockEnd
  0
ENDSEC
  0
SECTION
  2
ENTITIES
  0
LWPOLYLINE
  5
2F
330
17
100
AcDbEntity
  8
NOZZLE_CONTOUR
100
AcDbPolyline
 90
434
 70
0
 10
-134.0490016143226
 20
25.0
 10
-34.04900161432262
 20
25.0
 10
-34.04900161432262
 20
25.0
 10
-32.809252386858226
 20
24.97437275161903
 10
-31.57162125015265
 20
24.897534790200094
 10
-30.338222676242193
 20
24.76961739211135
 10
-29.1111639059006
 20
24.59083910208167
 10
-27.89254134845359
 20
24.361505359820633
 10
-26.684437000098644
 20
24.08200797817991
 10
-25.488914886849464
 20
23.75282447374758
 10
-24.308017538182114
 20
23.37451725101904
 10
-23.143762497407725
 20
22.94773264153837
 10
-21.998138874733534
 20
22.473199799651724
 10
-20.87310394890151
 20
21.951729456759367
 10
-19.77057982321041
 20
21.38421253619467
 10
-18.69245014163459
 20
20.771618631096555
 10
-17.640556870649814
 20
20.114994347875857
 10
-16.61669715226447
 20
19.415461518105847
 10
-15.622620233632585
 20
18.674215281891808
 10
-14.660024478494392
 20
17.892522045994195
 10
-13.730554465550387
 20
17.071717320193947
 10
-12.835798178726193
 20
16.213203435596427
 10
-12.835798178726197
 20
16.21320343559642
 10
-4.828717001052154
 20
8.206122257922377
 10
-4.828717001052154
 20
8.206122257922377
 10
-4.443394267828276
 20
7.841162057398233
 10
-4.058071534604398
 20
7.5159673855605
 10
-3.6727488013805196
 20
7.229098937339597
 10
-3.287426068156642
 20
6.97911740766594
 10
-2.9021033349327636
 20
6.764583491469945
 10
-2.5167806017088856
 20
6.584057883682031
 10
-2.1314578684850076
 20
6.436101279232615
 10
-1.7461351352611296
 20
6.319274373052115
 10
-1.3608124020372516
 20
6.232137860070944
 10
-0.9754896688133736
 20
6.173252435219524
 10
-0.5901669355894956
 20
6.141178793428271
 10
-0.20484420236561718
 20
6.1344776296276
 10
0.18047853085826038
 20
6.151709638747931
 10
0.5658012640821388
 20
6.191435515719679
 10
0.9511239973060164
 20
6.252215955473262
 10
1.3364467305298948
 20
6.332611652939098
 10
1.7217694637537733
 20
6.431183303047603
 10
2.107092196977651
 20
6.546491600729194
 10
2.492414930201529
 20
6.6770972409142875
 10
2.492414930201529
 20
6.6770972409142875
 10
4.889804581375552
 20
7.614875768657933
 10
5.337558382970235
 20
7.789636401139681
 10
5.666424344848076
 20
7.917711401125924
 10
5.933986510010514
 20
8.021681795502968
 10
6.16317603959434
 20
8.110544135315326
 10
6.36579916478249
 20
8.18893191900664
 10
6.548823935691769
 20
8.259580601779547
 10
6.716738892274844
 20
8.324252678670106
 10
6.872619054077884
 20
8.384155862491806
 10
7.018670218501032
 20
8.440156646370422
 10
7.156532300947614
 20
8.49289934263962
 10
7.287459986867589
 20
8.542876986168537
 10
7.412436092994093
 20
8.59047583320828
 10
7.532245782802033
 20
8.636004497789163
 10
7.647526890702353
 20
8.679713711097044
 10
7.758805071671371
 20
8.721810124370647
 10
7.866518981888271
 20
8.76246619825487
 10
7.971038717759814
 20
8.801827445319525
 10
8.072679579791343
 20
8.840017836878452
 10
8.171712522072553
 20
8.877143908289971
 10
8.268372205810321
 20
8.91329792330739
 10
8.36286329048263
 20
8.948560346235844
 10
8.455365408287706
 20
8.983001796891813
 10
8.54603714093036
 20
9.016684613648852
 10
8.6350192307819
 20
9.049664115694084
 10
8.72243719761536
 20
9.081989631734457
 10
8.808403488903238
 20
9.113705345423147
 10
8.893019260512066
 20
9.14485099554321
 10
8.976375861874912
 20
9.175462460050248
 10
9.058556082913887
 20
9.205572246473782
 10
9.139635207372539
 20
9.23520990622423
 10
9.219681907704048
 20
9.264402386615464
 10
9.298759009454342
 20
9.293174331580708
 10
9.376924147441308
 20
9.321548339845853
 10
9.454230331683377
 20
9.349545187616386
 10
9.530726437662489
 20
9.377184021509919
 10
9.606457632804444
 20
9.404482526405127
 10
9.68146574893321
 20
9.431457072042289
 10
9.755789608751044
 20
9.458122841540735
 10
9.829465313025532
 20
9.484493944459848
 10
9.902526494054216
 20
9.510583516593773
 10
9.975004540074314
 20
9.53640380833515
 10
10.046928794545106
 20
9.56196626315225
 10
10.11832673362329
 20
9.587281587485204
 10
10.189224124647899
 20
9.61235981316908
 10
10.259645168035457
 20
9.63721035332794
 10
10.329612624636187
 20
9.66184205254661
 10
10.39914793031381
 20
9.686263232013378
 10
10.468271299262318
 20
9.710481730229096
 10
10.537001817379611
 20
9.73450493980147
 10
10.605357526812618
 20
9.758339840763938
 10
10.67335550267121
 20
9.78199303081109
 10
10.741011922781691
 20
9.805470752792692
 10
10.80834213120977
 20
9.828778919754516
 10
10.875360696222087
 20
9.851923137788756
 10
10.942081463262303
 20
9.874908726920829
 10
11.008517603449459
 20
9.897740740232408
 10
11.074681658048704
 20
9.92042398139782
 10
11.140585579310184
 20
9.942963020789659
 10
11.206240768029302
 20
9.965362210292628
 10
11.271658108139874
 20
9.987625696948266
 10
11.336847998619263
 20
10.009757435540449
 10
11.401820382953343
 20
10.031761200219263
 10
11.466584776383002
 20
10.053640595250522
 10
11.53115029113094
 20
10.075399064969249
 10
11.595525659786453
 20
10.09703990300704
 10
11.659719257008419
 20
10.118566260856484
 10
11.723739119690093
 20
10.139981155829146
 10
11.787592965715195
 20
10.161287478458163
 10
11.851288211428177
 20
10.182487999393501
 10
11.914831987903083
 20
10.20358537582442
 10
11.978231156134925
 20
10.224582157476307
 10
12.041492321239584
 20
10.245480792215712
 10
12.104621845707687
 20
10.266283631283638
 10
12.167625861813324
 20
10.286992934195013
 10
12.230510283239669
 20
10.307610873328983
 10
12.293280815974299
 20
10.328139538231255
 10
12.35594296853144
 20
10.348580939650864
 10
12.418502061551072
 20
10.368937013331013
 10
12.480963236818749
 20
10.389209623571404
 10
12.54333146574885
 20
10.409400566578771
 10
12.605611557369174
 20
10.42951157362062
 10
12.66780816584167
 20
10.449544313995885
 10
12.729925797551426
 20
10.469500397835176
 10
12.791968817793796
 20
10.489381378742346
 10
12.853941457086371
 20
10.509188756287994
 10
12.915847817131258
 20
10.528923978364883
 10
12.977691876450729
 20
10.548588443414392
 10
13.039477495717325
 20
10.568183502532312
 10
13.101208422798859
 20
10.587710461462045
 10
13.162888297535527
 20
10.607170582482008
 10
13.224520656266852
 20
10.626565086194246
 10
13.286108936124744
 20
10.645895153220566
 10
13.347656479104113
 20
10.66516192581101
 10
13.409166535928874
 20
10.684366509371275
 10
13.470642269724147
 20
10.703509973913587
 10
13.532086759503814
 20
10.722593355434748
 10
13.593503003487957
 20
10.741617657226856
 10
13.654893922258122
 20
10.760583851123974
 10
13.71626236176101
 20
10.779492878688853
 10
13.777611096167847
 20
10.798345652342679
 10
13.83894283059944
 20
10.817143056441655
 10
13.900260203723239
 20
10.835885948303023
 10
13.961565790229871
 20
10.854575159183451
 10
14.022862103196175
 20
10.873211495212503
 10
14.084151596340766
 20
10.891795738283626
 10
14.145436666177527
 20
10.910328646904809
 10
14.20671965407345
 20
10.92881095701137
 10
14.268002848215199
 20
10.947243382742656
 10
14.329288485489391
 20
10.965626617184615
 10
14.39057875328135
 20
10.98396133308013
 10
14.451875791196386
 20
11.002248183508668
 10
14.513181692708656
 20
11.020487802537222
 10
14.574498506736871
 20
11.038680805842592
 10
14.63582823915446
 20
11.056827791307722
 10
14.697172854244736
 20
11.074929339595464
 10
14.758534276088955
 20
11.092986014696512
 10
14.81991438989524
 20
11.110998364454197
 10
14.881315043278702
 20
11.128966921069399
 10
14.94273804748909
 20
11.14689220158484
 10
15.004185178589234
 20
11.164774708349908
 10
15.06565817858639
 20
11.182614929466881
 10
15.127158756520137
 20
11.200413339219859
 10
15.188688589506942
 20
11.218170398486642
 10
15.25024932374548
 20
11.235886555134966
 10
15.311842575482672
 20
11.253562244403248
 10
15.37346993194356
 20
11.271197889266968
 10
15.435132952226125
 20
11.288793900791157
 10
15.496833168162198
 20
11.306350678469515
 10
15.558572085147325
 20
11.32386861055111
 10
15.620351182939096
 20
11.341348074354707
 10
15.682171916427277
 20
11.35878943657183
 10
15.744035716375272
 20
11.376193053558506
 10
15.8059439901356
 20
11.393559271616667
 10
15.867898122339117
 20
11.41088842726522
 10
15.929899475560543
 20
11.428180847501626
 10
15.991949390960134
 20
11.445436850054078
 10
16.054049188903104
 20
11.462656743624851
 10
16.116200169557448
 20
11.479840828125084
 10
16.178403613471648
 20
11.49698939490154
 10
16.24066078213193
 20
11.514102726955329
 10
16.302972918501496
 20
11.531181099153395
 10
16.36534124754065
 20
11.54822477843251
 10
16.427766976710615
 20
11.565234023996691
 10
16.490251296459615
 20
11.582209087507678
 10
16.55279538069307
 20
11.599150213269116
 10
16.615400387229325
 20
11.616057638404854
 10
16.67806745823973
 20
11.632931593031145
 10
16.740797720674703
 20
11.649772300423255
 10
16.803592286672593
 20
11.666579977175711
 10
16.86645225396979
 20
11.683354833361161
 10
16.92937870628005
 20
11.700097072679357
 10
16.992372713661997
 20
11.716806892601431
 10
17.05543533289271
 20
11.733484484514248
 10
17.118567607815663
 20
11.750130033856442
 10
17.181770569681408
 20
11.766743720251116
 10
17.245045237478124
 20
11.783325717634458
 10
17.308392618251705
 20
11.79987619438028
 10
17.371813707416432
 20
11.816395313420736
 10
17.43530948905629
 20
11.832883232363372
 10
17.498880936217446
 20
11.8493401036046
 10
17.562529011191657
 20
11.86576607443964
 10
17.62625466579163
 20
11.88216128716922
 10
17.69005884161852
 20
11.898525879203103
 10
17.75394247032109
 20
11.914859983160394
 10
17.817906473848044
 20
11.931163726967025
 10
17.88195176469256
 20
11.947437233950211
 10
17.946079246130225
 20
11.96368062293024
 10
18.01028981244999
 20
11.979894008309484
 10
18.07458434917879
 20
11.996077500158904
 10
18.138963733299835
 20
12.012231204301997
 10
18.20342883346476
 20
12.028355222396335
 10
18.267980510199827
 20
12.044449652012734
 10
18.332619616106864
 20
12.060514586712246
 10
18.397346996058307
 20
12.076550116120899
 10
18.462163487386867
 20
12.09255632600227
 10
18.52706992007061
 20
12.108533298328162
 10
18.592067116912517
 20
12.124481111347146
 10
18.65715589371571
 20
12.140399839651339
 10
18.722337059453444
 20
12.156289554241132
 10
18.78761141643939
 20
12.172150322589335
 10
18.852979760477012
 20
12.187982208699527
 10
18.918442881024905
 20
12.20378527316765
 10
18.98400156135793
 20
12.219559573241913
 10
19.049656578704433
 20
12.235305162876301
 10
19.11540870439622
 20
12.251022092786556
 10
19.1812587040098
 20
12.266710410503471
 10
19.24720733750499
 20
12.282370160424962
 10
19.313255359359584
 20
12.298001383866657
 10
19.379403518700315
 20
12.313604119111032
 10
19.445652559431053
 20
12.329178401455392
 10
19.512003220358224
 20
12.344724263258627
 10
19.578456235312082
 20
12.360241733986527
 10
19.64501233326625
 20
12.37573084025618
 10
19.711672238453037
 20
12.391191605878873
 10
19.778436670477017
 20
12.406624051902178
 10
19.84530634442544
 20
12.422028196650755
 10
19.912281970976057
 20
12.437404055766201
 10
19.9793642565023
 20
12.45275164224577
 10
20.046553903176232
 20
12.468070966480216
 10
20.113851609068885
 20
12.48336203629057
 10
20.18125806824824
 20
12.498624856964001
 10
20.24877397087505
 20
12.513859431288779
 10
20.31640000329634
 20
12.529065759588317
 10
20.38413684813679
 20
12.544243839754365
 10
20.451985184388242
 20
12.559393667279398
 10
20.519945687496747
 20
12.574515235288107
 10
20.58801902944809
 20
12.589608534568168
 10
20.656205878851093
 20
12.60467355360019
 10
20.72450690101903
 20
12.619710278586915
 10
20.792922758049734
 20
12.634718693481771
 10
20.861454108903374
 20
12.64969878001659
 10
20.930101609478534
 20
12.664650517728667
 10
20.99886591268713
 20
12.679573883987214
 10
21.06774766852715
 20
12.694468854019071
 10
21.136747524154448
 20
12.709335400933885
 10
21.205866123952028
 20
12.724173495748492
 10
21.27510410959897
 20
12.7389831074109
 10
21.344462120137234
 20
12.753764202823566
 10
21.41394079203684
 20
12.768516746866037
 10
21.483540759260585
 20
12.783240702417228
 10
21.55326265332648
 20
12.797936030376981
 10
21.62310710336933
 20
12.812602689687136
 10
21.693074736201027
 20
12.827240637352135
 10
21.763166176369538
 20
12.84184982845908
 10
21.833382046216713
 20
12.856430216197296
 10
21.903722965934882
 20
12.870981751877423
 10
21.97418955362243
 20
12.885504384950076
 10
22.044782425338113
 20
12.899998063023984
 10
22.1155021951542
 20
12.914462731883706
 10
22.186349475209187
 20
12.928898335507018
 10
22.257324875758393
 20
12.943304816081644
 10
22.328429005224503
 20
12.957682114021809
 10
22.39966247024684
 20
12.972030167984302
 10
22.47102587572951
 20
12.986348914884104
 10
22.5425198248887
 20
13.000638289909675
 10
22.614144919299253
 20
13.014898226537875
 10
22.685901758940098
 20
13.029128656548504
 10
22.75779094223906
 20
13.043329510038493
 10
22.829813066116504
 20
13.05750071543572
 10
22.901968726028503
 20
13.071642199512517
 10
22.974258516009186
 20
13.085753887398877
 10
23.04668302871183
 20
13.099835702595216
 10
23.11924285544993
 20
13.113887566984983
 10
23.191938586236738
 20
13.127909400846802
 10
23.264770809824874
 20
13.141901122866443
 10
23.337740113744434
 20
13.15586265014837
 10
23.41084708434125
 20
13.169793898227176
 10
23.484092306813487
 20
13.1836947810785
 10
23.557476365248533
 20
13.197565211129886
 10
23.63099984265865
 20
13.211405099271254
 10
23.704663321016326
 20
13.225214354865145
 10
23.77846738128856
 20
13.238992885756659
 10
23.852412603471123
 20
13.252740598283225
 10
23.926499566621896
 20
13.266457397284062
 10
24.00072884889367
 20
13.280143186109413
 10
24.07510102756633
 20
13.293797866629518
 10
24.14961667907863
 20
13.307421339243401
 10
24.224276379059702
 20
13.32101350288747
 10
24.29908070235915
 20
13.334574255043714
 10
24.3740302230776
 20
13.348103491747896
 10
24.44912551459625
 20
13.361601107597405
 10
24.524367149605936
 20
13.375066995758921
 10
24.599755700136203
 20
13.388501047975971
 10
24.675291737583056
 20
13.4019031545761
 10
24.750975832737062
 20
13.415273204478027
 10
24.826808555810562
 20
13.428611085198488
 10
24.902790476464464
 20
13.441916682858963
 10
24.97892216383512
 20
13.455189882192224
 10
25.055204186559926
 20
13.468430566548609
 10
25.13163711280312
 20
13.481638617902206
 10
25.208221510281238
 20
13.49481391685689
 10
25.284957946287722
 20
13.507956342652074
 10
25.361846987717506
 20
13.521065773168395
 10
25.438889201091193
 20
13.534142084933212
 10
25.51608515257858
 20
13.54718515312589
 10
25.593435408022543
 20
13.560194851583068
 10
25.67094053296127
 20
13.573171052803534
 10
25.748601092652013
 20
13.58611362795326
 10
25.826417652092452
 20
13.599022446869979
 10
25.904390776043392
 20
13.611897378067841
 10
25.982521029050325
 20
13.624738288741831
 10
26.060808975464795
 20
13.637545044772054
 10
26.139255179465295
 20
13.650317510727861
 10
26.21786020507874
 20
13.663055549871965
 10
26.29662461620017
 20
13.675759024164202
 10
26.375548976613455
 20
13.688427794265376
 10
26.454633850011323
 20
13.70106171954089
 10
26.533879800014606
 20
13.713660658064189
 10
26.613287390192042
 20
13.72622446662021
 10
26.69285718407927
 20
13.738753000708616
 10
26.772589745197678
 20
13.75124611454694
 10
26.852485637073148
 20
13.763703661073611
 10
26.93254542325418
 20
13.776125491950863
 10
27.01276966733044
 20
13.788511457567559
 10
27.093158932950182
 20
13.800861407041829
 10
27.17371378383844
 20
13.81317518822372
 10
27.254434783814098
 20
13.825452647697624
 10
27.335322496807112
 20
13.83769363078463
 10
27.416377486875742
 20
13.84989798154484
 10
27.497600318223114
 20
13.862065542779495
 10
27.578991555214024
 20
13.874196156033054
 10
27.66055176239104
 20
13.886289661595143
 10
27.74228150449094
 20
13.898345898502445
 10
27.82418134646049
 20
13.910364704540465
 10
27.906251853472252
 20
13.922345916245193
 10
27.98849359094023
 20
13.934289368904707
 10
28.070907124535225
 20
13.94619489656066
 10
28.153493020200294
 20
13.958062332009725
 10
28.236251844165427
 20
13.969891506804851
 10
28.319184162962426
 20
13.981682251256515
 10
28.402290543439946
 20
13.993434394433901
 10
28.48557155277798
 20
14.005147764165965
 10
28.56902775850182
 20
14.016822187042358
 10
28.65265972849652
 20
14.028457488414352
 10
28.736468031021055
 20
14.040053492395685
 10
28.820453234722166
 20
14.051610021863297
 10
28.904615908647994
 20
14.063126898457964
 10
28.988956622261497
 20
14.074603942584876
 10
29.07347594545446
 20
14.086040973414201
 10
29.15817444856012
 20
14.097437808881446
 10
29.243052702366995
 20
14.10879426568791
 10
29.328111278131253
 20
14.120110159300863
 10
29.41335074759003
 20
14.131385303953856
 10
29.49877168297424
 20
14.142619512646835
 10
29.58437465702079
 20
14.153812597146196
 10
29.670160242985354
 20
14.164964367984794
 10
29.756129014654928
 20
14.176074634461955
 10
29.842281546359683
 20
14.187143204643256
 10
29.928618412985397
 20
14.198169885360397
 10
30.015140189985143
 20
14.209154482210884
 10
30.101847453391773
 20
14.220096799557792
 10
30.18874077982902
 20
14.230996640529295
 10
30.27582074652377
 20
14.241853807018288
 10
30.363087931317143
 20
14.252668099681827
 10
30.450542912676237
 20
14.263439317940575
 10
30.538186269705466
 20
14.274167259978185
 10
30.62601858215774
 20
14.284851722740596
 10
30.71404043044538
 20
14.295492501935264
 10
30.80225239565199
 20
14.306089392030438
 10
30.890655059542528
 20
14.316642186254198
 10
30.97924900457427
 20
14.327150676593542
 10
31.06803481390829
 20
14.337614653793494
 10
31.15701307141942
 20
14.34803390735599
 10
31.246184361706913
 20
14.358408225538804
 10
31.33554927010553
 20
14.368737395354458
 10
31.425108382695164
 20
14.379021202568946
 10
31.514862286311622
 20
14.389259431700538
 10
31.604811568557075
 20
14.3994518660185
 10
31.694956817809484
 20
14.409598287541657
 10
31.785298623233516
 20
14.419698477037075
 10
31.87583757479005
 20
14.42975221401856
 10
31.966574263246155
 20
14.439759276745157
 10
32.057509280185066
 20
14.449719442219601
 10
32.1486432180161
 20
14.459632486186733
 10
32.239976669984074
 20
14.469498183131813
 10
32.331510230179305
 20
14.479316306278859
 10
32.42324449354626
 20
14.489086627588799
 10
32.515180055894646
 20
14.498808917757836
 10
32.6073175139073
 20
14.50848294621545
 10
32.699657465150544
 20
14.51810848112261
 10
32.79220050808285
 20
14.527685289369767
 10
32.88494724206478
 20
14.537213136574952
 10
32.97789826736751
 20
14.54669178708167
 10
33.071054185182234
 20
14.556121003956873
 10
33.16441559762908
 20
14.56550054898881
 10
33.25798310776665
 20
14.574830182684943
 10
33.35175731959999
 20
14.584109664269628
 10
33.44573883809039
 20
14.593338751681964
 10
33.5399282691639
 20
14.602517201573475
 10
33.63432621971979
 20
14.611644769305743
 10
33.728933297639834
 20
14.620721208948085
 10
33.82375011179641
 20
14.629746273275089
 10
33.91877727206174
 20
14.638719713764209
 10
34.014015389316015
 20
14.647641280593218
 10
34.1094650754558
 20
14.656510722637675
 10
34.20512694340328
 20
14.665327787468383
 10
34.30100160711372
 20
14.674092221348712
 10
34.397089681584454
 20
14.682803769231974
 10
34.49339178286309
 20
14.691462174758707
 10
34.589908528055595
 20
14.700067180253935
 10
34.68664053533532
 20
14.70861852672444
 10
34.783588423949695
 20
14.717115953855808
 10
34.88075281423013
 20
14.725559200009734
 10
34.9781343275989
 20
14.73394800222101
 10
35.075733586577975
 20
14.742282096194666
 10
35.173551214796454
 20
14.750561216302923
 10
35.271587836999046
 20
14.75878509558226
 10
35.36984407905389
 20
14.766953465730314
  0
ENDSEC
  0
SECTION
  2
OBJECTS
  0
DICTIONARY
  5
A
330
0
100
AcDbDictionary
281
1
  3
ACAD_COLOR
350
B
  3
ACAD_GROUP
350
C
  3
ACAD_LAYOUT
350
D
  3
ACAD_MATERIAL
350
E
  3
ACAD_MLEADERSTYLE
350
F
  3
ACAD_MLINESTYLE
350
10
  3
ACAD_PLOTSETTINGS
350
11
  3
ACAD_PLOTSTYLENAME
350
12
  3
ACAD_SCALELIST
350
14
  3
ACAD_TABLESTYLE
350
15
  3
ACAD_VISUALSTYLE
350
16
  3
EZDXF_META
350
2D
  0
DICTIONARY
  5
B
330
A
100
AcDbDictionary
281
1
  0
DICTIONARY
  5
C
330
A
100
AcDbDictionary
281
1
  0
DICTIONARY
  5
D
330
A
100
AcDbDictionary
281
1
  3
Model
350
1A
  3
Layout1
350
1E
  0
DICTIONARY
  5
E
330
A
100
AcDbDictionary
281
1
  3
ByBlock
350
1F
  3
ByLayer
350
20
  3
Global
350
21
  0
DICTIONARY
  5
F
330
A
100
AcDbDictionary
281
1
  3
Standard
350
2C
  0
DICTIONARY
  5
10
330
A
100
AcDbDictionary
281
1
  3
Standard
350
22
  0
DICTIONARY
  5
11
330
A
100
AcDbDictionary
281
1
  0
ACDBDICTIONARYWDFLT
  5
12
330
A
100
AcDbDictionary
281
1
  3
Normal
350
13
100
AcDbDictionaryWithDefault
340
13
  0
ACDBPLACEHOLDER
  5
13
330
12
  0
DICTIONARY
  5
14
330
A
100
AcDbDictionary
281
1
  0
DICTIONARY
  5
15
330
A
100
AcDbDictionary
281
1
  0
DICTIONARY
  5
16
330
A
100
AcDbDictionary
281
1
  0
LAYOUT
  5
1A
330
D
100
AcDbPlotSettings
  1

  4
A3
  6

 40
7.5
 41
20.0
 42
7.5
 43
20.0
 44
420.0
 45
297.0
 46
0.0
 47
0.0
 48
0.0
 49
0.0
140
0.0
141
0.0
142
1.0
143
1.0
 70
1024
 72
1
 73
0
 74
5
  7

 75
16
 76
0
 77
2
 78
300
147
1.0
148
0.0
149
0.0
100
AcDbLayout
  1
Model
 70
1
 71
0
 10
0.0
 20
0.0
 11
420.0
 21
297.0
 12
0.0
 22
0.0
 32
0.0
 14
1e+20
 24
1e+20
 34
1e+20
 15
-1e+20
 25
-1e+20
 35
-1e+20
146
0.0
 13
0.0
 23
0.0
 33
0.0
 16
1.0
 26
0.0
 36
0.0
 17
0.0
 27
1.0
 37
0.0
 76
1
330
17
  0
LAYOUT
  5
1E
330
D
100
AcDbPlotSettings
  1

  4
A3
  6

 40
7.5
 41
20.0
 42
7.5
 43
20.0
 44
420.0
 45
297.0
 46
0.0
 47
0.0
 48
0.0
 49
0.0
140
0.0
141
0.0
142
1.0
143
1.0
 70
0
 72
1
 73
0
 74
5
  7

 75
16
 76
0
 77
2
 78
300
147
1.0
148
0.0
149
0.0
100
AcDbLayout
  1
Layout1
 70
1
 71
1
 10
0.0
 20
0.0
 11
420.0
 21
297.0
 12
0.0
 22
0.0
 32
0.0
 14
1e+20
 24
1e+20
 34
1e+20
 15
-1e+20
 25
-1e+20
 35
-1e+20
146
0.0
 13
0.0
 23
0.0
 33
0.0
 16
1.0
 26
0.0
 36
0.0
 17
0.0
 27
1.0
 37
0.0
 76
1
330
1B
  0
MATERIAL
  5
1F
102
{ACAD_REACTORS
330
E
102
}
330
E
100
AcDbMaterial
  1
ByBlock
  2

 70
0
 40
1.0
 71
1
 41
1.0
 91
-1023410177
 42
1.0
 72
1
  3

 73
1
 74
1
 75
1
 44
0.5
 73
0
 45
1.0
 46
1.0
 77
1
  4

 78
1
 79
1
170
1
 48
1.0
171
1
  6

172
1
173
1
174
1
140
1.0
141
1.0
175
1
  7

176
1
177
1
178
1
143
1.0
179
1
  8

270
1
271
1
272
1
145
1.0
146
1.0
273
1
  9

274
1
275
1
276
1
 42
1.0
 72
1
  3

 73
1
 74
1
 75
1
 94
63
  0
MATERIAL
  5
20
102
{ACAD_REACTORS
330
E
102
}
330
E
100
AcDbMaterial
  1
ByLayer
  2

 70
0
 40
1.0
 71
1
 41
1.0
 91
-1023410177
 42
1.0
 72
1
  3

 73
1
 74
1
 75
1
 44
0.5
 73
0
 45
1.0
 46
1.0
 77
1
  4

 78
1
 79
1
170
1
 48
1.0
171
1
  6

172
1
173
1
174
1
140
1.0
141
1.0
175
1
  7

176
1
177
1
178
1
143
1.0
179
1
  8

270
1
271
1
272
1
145
1.0
146
1.0
273
1
  9

274
1
275
1
276
1
 42
1.0
 72
1
  3

 73
1
 74
1
 75
1
 94
63
  0
MATERIAL
  5
21
102
{ACAD_REACTORS
330
E
102
}
330
E
100
AcDbMaterial
  1
Global
  2

 70
0
 40
1.0
 71
1
 41
1.0
 91
-1023410177
 42
1.0
 72
1
  3

 73
1
 74
1
 75
1
 44
0.5
 73
0
 45
1.0
 46
1.0
 77
1
  4

 78
1
 79
1
170
1
 48
1.0
171
1
  6

172
1
173
1
174
1
140
1.0
141
1.0
175
1
  7

176
1
177
1
178
1
143
1.0
179
1
  8

270
1
271
1
272
1
145
1.0
146
1.0
273
1
  9

274
1
275
1
276
1
 42
1.0
 72
1
  3

 73
1
 74
1
 75
1
 94
63
  0
MLINESTYLE
  5
22
102
{ACAD_REACTORS
330
10
102
}
330
10
100
AcDbMlineStyle
  2
Standard
 70
0
  3

 62
256
 51
90.0
 52
90.0
 71
2
 49
0.5
 62
256
  6
BYLAYER
 49
-0.5
 62
256
  6
BYLAYER
  0
MLEADERSTYLE
  5
2C
102
{ACAD_REACTORS
330
F
102
}
330
F
100
AcDbMLeaderStyle
179
2
170
2
171
1
172
0
 90
2
 40
0.0
 41
0.0
173
1
 91
-1056964608
 92
-2
290
1
 42
2.0
291
1
 43
8.0
  3
Standard
 44
4.0
300

342
29
174
1
175
1
176
0
178
1
 93
-1056964608
 45
4.0
292
0
297
0
 46
4.0
 94
-1056964608
 47
1.0
 49
1.0
140
1.0
294
1
141
0.0
177
0
142
1.0
295
0
296
0
143
3.75
271
0
272
9
273
9
  0
DICTIONARY
  5
2D
330
A
100
AcDbDictionary
280
1
281
1
  3
CREATED_BY_EZDXF
350
2E
  3
WRITTEN_BY_EZDXF
350
32
  0
DICTIONARYVAR
  5
2E
330
2D
100
DictionaryVariables
280
0
  1
1.4.3 @ 2025-11-27T14:02:33.872991+00:00
  0
DICTIONARYVAR
  5
32
330
2D
100
DictionaryVariables
280
0
  1
1.4.3 @ 2025-11-27T14:02:33.876488+00:00
  0
ENDSEC
  0
EOF
